<svg width="128" height="128" viewBox="0 0 128 128" fill="none" xmlns="http://www.w3.org/2000/svg">
<g clip-path="url(#clip0_1_53)">
<path d="M64.293 0.43C48.553 0.13 33.537 4.285 20.69 16.163C-6.19499 41.029 -6.99599 83.603 18.972 109.387C23.646 114.028 29.209 118.322 35.317 120.937C36.912 115.572 36.602 109.096 36.097 102.73C35.975 102.604 35.85 102.48 35.757 102.34C34.051 99.797 35.317 93.156 35.317 90.135C46.052 92.038 54.795 97.943 66.287 94.513C77.533 91.157 82.22 74.938 72.305 67.261C66.318 62.621 57.435 63.254 50.373 64.105C46.133 64.617 40.837 66.183 37.909 61.672C36.181 59.017 37.965 52.501 38.255 49.497C38.327 48.74 38.406 47.969 38.481 47.209C39.233 37.881 40.481 28.453 40.481 19.119H86.074V3.295C78.754 1.623 71.448 0.57 64.293 0.43Z" fill="#F4A261"/>
<path d="M85.705 3.266V31.12H52.53L50.806 52.543C58.168 51.966 64.993 50.667 72.35 52.396C77.393 53.584 82.127 55.966 85.63 59.83C95.404 70.602 93.48 90.822 82.258 99.907C79.1 102.464 75.492 104.144 71.682 105.224C68.164 106.349 64.63 106.824 61.083 106.858C59.8128 106.927 58.541 106.963 57.269 106.965C51.745 106.965 46.22 106.247 40.896 104.757C39.542 104.377 37.448 103.85 36.132 102.864C35.852 102.804 35.573 102.74 35.294 102.679L34.865 120.677C69.057 138.807 112.615 119.409 124.878 83.827C135.246 53.757 119.19 11.157 85.706 3.265L85.705 3.266Z" fill="#F4A261"/>
</g>
<defs>
<clipPath id="clip0_1_53">
<rect width="128" height="128" fill="white"/>
</clipPath>
</defs>
</svg>
