<svg width="128" height="128" viewBox="0 0 128 128" fill="none" xmlns="http://www.w3.org/2000/svg">
<g clip-path="url(#clip0_1_56)">
<path d="M117.688 98.242C110.715 98.051 105.391 98.703 100.836 100.621C99.543 101.168 97.481 101.18 97.27 102.801C97.981 103.547 98.09 104.66 98.657 105.578C99.743 107.332 101.579 109.691 103.216 110.93C105.005 112.278 106.849 113.723 108.767 114.891C112.181 116.973 115.99 118.161 119.271 120.243C121.209 121.473 123.13 123.02 125.021 124.407C125.955 125.091 126.584 126.157 127.794 126.587V126.392C127.157 125.58 126.993 124.462 126.407 123.615L123.829 121.037C121.309 117.693 118.11 114.756 114.712 112.318C112.001 110.369 105.931 107.74 104.802 104.588L104.603 104.389C106.525 104.17 108.775 103.475 110.552 102.998C113.532 102.201 116.197 102.408 119.271 101.611L123.435 100.424V99.631C121.88 98.037 120.771 95.924 119.076 94.479C114.635 90.698 109.791 86.924 104.803 83.776C102.037 82.03 98.619 80.893 95.686 79.413C94.698 78.917 92.967 78.655 92.315 77.827C90.776 75.866 89.936 73.378 88.749 71.089C86.261 66.296 83.819 61.066 81.612 56.023C80.108 52.586 79.128 49.195 77.253 46.113C68.253 31.316 58.566 22.383 43.558 13.605C40.363 11.738 36.519 11 32.456 10.035L25.913 9.64C24.581 9.085 23.198 7.456 21.948 6.663C16.977 3.52 4.223 -3.312 0.538997 5.672C-1.785 11.34 4.016 16.871 6.09 19.746C7.547 21.758 9.41 24.019 10.449 26.285C11.137 27.777 11.254 29.269 11.84 30.844C13.278 34.727 14.535 38.953 16.399 42.539C17.34 44.355 18.379 46.266 19.571 47.891C20.298 48.887 21.551 49.329 21.751 50.864C20.524 52.579 20.454 55.239 19.767 57.407C16.669 67.177 17.841 79.317 22.345 86.544C23.728 88.767 26.986 93.524 31.462 91.7C35.38 90.102 34.505 85.161 35.626 80.798C35.88 79.81 35.724 79.083 36.22 78.419V78.618L39.79 85.751C42.431 90.005 47.114 94.45 51.087 97.45C53.146 99.005 54.767 101.692 57.431 102.602V102.403H57.232C56.716 101.598 55.908 101.266 55.252 100.622C53.701 99.099 51.975 97.208 50.693 95.466C47.08 90.564 43.888 85.196 40.982 79.611C39.591 76.943 38.384 74.002 37.212 71.287C36.759 70.24 36.767 68.654 35.825 68.115C34.544 70.103 32.653 71.713 31.661 74.06C30.079 77.814 29.872 82.396 29.286 87.142C28.938 87.267 29.091 87.181 28.888 87.341C26.126 86.673 25.158 83.833 24.13 81.392C21.536 75.228 21.052 65.302 23.337 58.201C23.927 56.365 26.599 50.584 25.517 48.885C25.001 47.194 23.298 46.213 22.345 44.92C21.165 43.322 19.99 41.217 19.173 39.369C17.048 34.564 16.06 29.166 13.821 24.307C12.751 21.983 10.946 19.631 9.462 17.569C7.817 15.28 5.978 13.592 4.704 10.827C4.251 9.843 3.638 8.268 4.306 7.261C4.521 6.577 4.822 6.292 5.497 6.07C6.645 5.183 9.849 6.367 11.044 6.863C14.224 8.183 16.876 9.441 19.571 11.226C20.86 12.081 22.169 13.738 23.731 14.199H25.516C28.305 14.84 31.43 14.394 34.039 15.187C38.648 16.589 42.777 18.769 46.527 21.136C57.949 28.351 67.293 38.616 73.683 50.87C74.71 52.843 75.156 54.722 76.062 56.815C77.886 61.034 80.187 65.374 82.003 69.503C83.819 73.616 85.585 77.773 88.151 81.198C89.499 82.999 94.702 83.964 97.069 84.964C98.729 85.663 101.448 86.394 103.018 87.343C106.018 89.152 108.924 91.308 111.741 93.288C113.143 94.28 117.471 96.456 117.686 98.245L117.688 98.242ZM29.083 22.722C27.63 22.695 26.603 22.878 25.517 23.117V23.316H25.712C26.407 24.738 27.63 25.656 28.489 26.882L30.469 31.046L30.668 30.851C31.895 29.984 32.457 28.601 32.449 26.488C31.957 25.968 31.887 25.324 31.457 24.703C30.895 23.879 29.797 23.414 29.082 22.723L29.083 22.722Z" fill="#F4A261"/>
</g>
<defs>
<clipPath id="clip0_1_56">
<rect width="128" height="128" fill="white"/>
</clipPath>
</defs>
</svg>
