<svg width="128" height="128" viewBox="0 0 128 128" fill="none" xmlns="http://www.w3.org/2000/svg">
<path d="M114.313 55.254C114.261 55.254 114.211 55.2693 114.168 55.298L111.822 56.668C111.778 56.6954 111.742 56.7337 111.717 56.7793C111.692 56.8249 111.679 56.8761 111.68 56.928V59.668C111.68 59.784 111.735 59.872 111.822 59.93L114.168 61.298C114.211 61.3266 114.261 61.3418 114.313 61.3418C114.365 61.3418 114.415 61.3266 114.458 61.298L116.8 59.93C116.845 59.9022 116.881 59.8634 116.907 59.8174C116.932 59.7714 116.945 59.7196 116.945 59.667V56.93C116.945 56.8779 116.932 56.8265 116.907 56.781C116.881 56.7354 116.845 56.6972 116.8 56.67L114.457 55.299C114.414 55.2705 114.364 55.2542 114.313 55.254ZM63.22 71.638C62.793 71.638 62.368 71.742 62.006 71.946L50.457 78.673C50.0867 78.8902 49.7798 79.2005 49.5668 79.5732C49.3538 79.9458 49.2422 80.3678 49.243 80.797V94.22C49.243 95.094 49.705 95.91 50.457 96.348L53.497 98.094C54.973 98.822 55.494 98.82 56.159 98.82C58.329 98.82 59.574 97.481 59.574 95.18V81.935C59.5727 81.8428 59.5357 81.7548 59.4708 81.6893C59.4059 81.6238 59.3182 81.5861 59.226 81.584H57.752C57.6595 81.5856 57.5712 81.6231 57.5059 81.6886C57.4405 81.7541 57.4033 81.8425 57.402 81.935V95.183C57.402 96.202 56.333 97.223 54.626 96.35L51.471 94.515C51.355 94.457 51.296 94.309 51.296 94.193V80.767C51.296 80.651 51.355 80.507 51.471 80.448L63.016 73.751C63.103 73.693 63.249 73.693 63.365 73.751L74.913 80.448C75.028 80.507 75.085 80.622 75.085 80.768V94.192C75.085 94.337 75.028 94.456 74.913 94.514L63.365 101.241C63.278 101.299 63.132 101.299 63.016 101.241L60.065 99.462C59.978 99.404 59.862 99.375 59.775 99.433C58.965 99.899 58.823 99.96 58.041 100.222C57.867 100.28 57.578 100.395 58.156 100.715L62.006 103.017C62.382 103.22 62.786 103.336 63.22 103.336C63.654 103.336 64.087 103.221 64.434 103.076L75.983 96.349C76.3534 96.1311 76.6604 95.82 76.8734 95.4467C77.0863 95.0734 77.1979 94.6508 77.197 94.221V80.797C77.197 79.923 76.735 79.11 75.983 78.673L64.434 71.946C64.0622 71.7415 63.6443 71.6355 63.22 71.638ZM81.25 77.768C80.6573 77.7704 80.0898 78.008 79.6722 78.4286C79.2547 78.8492 79.0211 79.4183 79.023 80.011C79.0214 80.6035 79.255 81.1725 79.6726 81.5928C80.0902 82.0132 80.6575 82.2506 81.25 82.253C82.467 82.253 83.478 81.234 83.478 80.011C83.4749 79.4198 83.2396 78.8534 82.8228 78.4341C82.4061 78.0147 81.8412 77.7748 81.25 77.768ZM81.22 78.147C81.4665 78.144 81.7112 78.19 81.9398 78.2823C82.1684 78.3747 82.3763 78.5116 82.5515 78.685C82.7268 78.8585 82.8657 79.065 82.9604 79.2927C83.0551 79.5203 83.1035 79.7645 83.103 80.011C83.103 81.031 82.263 81.905 81.221 81.905C80.209 81.905 79.369 81.059 79.369 80.011C79.369 78.963 80.237 78.147 81.22 78.147ZM80.411 78.758V81.32H80.905V80.304H81.339C81.513 80.304 81.57 80.362 81.599 80.507C81.599 80.537 81.685 81.177 81.685 81.293H82.205C82.147 81.177 82.118 80.827 82.089 80.623C82.061 80.303 82.033 80.07 81.685 80.041C81.859 79.982 82.148 79.895 82.148 79.429C82.148 78.759 81.568 78.759 81.28 78.759L80.411 78.758ZM80.846 79.166H81.25C81.396 79.166 81.626 79.166 81.626 79.515C81.626 79.631 81.57 79.866 81.25 79.866H80.845L80.846 79.166ZM66.376 81.176C63.076 81.176 61.108 82.574 61.108 84.933C61.108 87.467 63.076 88.163 66.231 88.484C70.021 88.863 70.311 89.417 70.311 90.174C70.311 91.484 69.267 92.038 66.836 92.038C63.768 92.038 63.103 91.28 62.871 89.737C62.871 89.562 62.729 89.447 62.555 89.447H61.05C60.958 89.4481 60.8702 89.4853 60.8054 89.5506C60.7407 89.6159 60.7043 89.7041 60.704 89.796C60.704 91.776 61.745 94.106 66.811 94.106C70.456 94.106 72.569 92.648 72.569 90.086C72.569 87.581 70.889 86.912 67.331 86.446C63.741 85.98 63.366 85.718 63.366 84.874C63.366 84.175 63.684 83.244 66.346 83.244C68.719 83.244 69.615 83.769 69.963 85.37C69.9804 85.4423 70.0211 85.5068 70.0787 85.5538C70.1363 85.6007 70.2077 85.6275 70.282 85.63H71.815C71.903 85.63 71.99 85.573 72.049 85.515C72.1027 85.4377 72.1323 85.3462 72.134 85.252C71.903 82.457 70.081 81.176 66.376 81.176Z" fill="#F4A261"/>
<path d="M84.0539 25C83.9338 24.9987 83.8153 25.029 83.7102 25.0879C83.6008 25.1523 83.5096 25.2441 83.4455 25.3545C83.3814 25.4649 83.3464 25.5901 83.344 25.718V44.4126C83.344 44.5844 83.2561 44.7582 83.0871 44.8728C83.0091 44.9152 82.9219 44.9375 82.8332 44.9375C82.7446 44.9375 82.6574 44.9152 82.5793 44.8728L79.5852 43.1198C79.3656 42.9924 79.1168 42.9254 78.8636 42.9254C78.6104 42.9254 78.3615 42.9924 78.1419 43.1198L66.1615 50.1664C65.9398 50.2928 65.7551 50.4762 65.626 50.698C65.4968 50.9198 65.4279 51.1722 65.4262 51.4296V65.4932C65.4262 66.0107 65.7094 66.5006 66.1615 66.7593L78.1438 73.8059C78.3634 73.9331 78.612 74 78.865 74C79.118 74 79.3666 73.9331 79.5862 73.8059L91.5675 66.7593C92.0197 66.5006 92.3029 66.0107 92.3029 65.4932V30.4359C92.3029 29.8897 92.0197 29.3989 91.5675 29.1411L84.4192 25.0879C84.3061 25.0305 84.1804 25.0004 84.0539 25ZM13.3661 42.546C13.1405 42.546 12.915 42.6289 12.7177 42.7435L0.735386 49.7645C0.510393 49.8943 0.323669 50.0824 0.194426 50.3095C0.0651822 50.5365 -0.00191367 50.7943 4.15418e-05 51.0563L0.0293381 69.9217C0.0293381 70.1814 0.168985 70.4402 0.395546 70.5557C0.500392 70.6259 0.623336 70.6633 0.749058 70.6633C0.87478 70.6633 0.997723 70.6259 1.10257 70.5557L8.22555 66.4146C8.67769 66.1559 8.95796 65.666 8.95796 65.1485V56.3192C8.95796 55.8017 9.24116 55.3119 9.69429 55.0531L12.7177 53.2705C12.9433 53.1263 13.1991 53.069 13.453 53.069C13.7069 53.069 13.9618 53.1263 14.1601 53.2705L17.1835 55.0531C17.6356 55.3119 17.9188 55.8017 17.9188 56.3192V65.1485C17.9188 65.666 18.2001 66.1559 18.6512 66.4146L25.7176 70.5557C25.8276 70.6261 25.9551 70.6635 26.0852 70.6635C26.2154 70.6635 26.3429 70.6261 26.4529 70.5557C26.5651 70.4935 26.6585 70.4017 26.7232 70.29C26.7879 70.1784 26.8214 70.0511 26.8201 69.9217V51.0563C26.8201 50.5387 26.5369 50.0489 26.0838 49.7891L14.1308 42.7435C13.9298 42.6346 13.7093 42.5671 13.4823 42.545L13.3661 42.546ZM111.673 42.7534C111.426 42.7534 111.181 42.8186 110.954 42.9489L98.9698 49.9916C98.5177 50.2504 98.2374 50.7402 98.2374 51.2587V65.3223C98.2374 65.8398 98.5177 66.3297 98.9698 66.5885L110.868 73.4889C111.082 73.616 111.326 73.683 111.575 73.683C111.823 73.683 112.067 73.616 112.281 73.4889L119.488 69.4071C119.6 69.3448 119.693 69.2529 119.758 69.1413C119.822 69.0296 119.856 68.9024 119.854 68.7731C119.855 68.6441 119.822 68.5173 119.757 68.406C119.693 68.2947 119.6 68.2032 119.488 68.141L107.45 61.0934C107.341 61.0283 107.25 60.936 107.185 60.8252C107.121 60.7143 107.086 60.5887 107.084 60.4603V56.0595C107.083 55.9305 107.116 55.8035 107.18 55.6921C107.245 55.5808 107.338 55.4893 107.45 55.4274L111.21 53.2409C111.32 53.1706 111.447 53.1333 111.578 53.1333C111.708 53.1333 111.835 53.1706 111.945 53.2409L115.701 55.4264C115.811 55.4913 115.903 55.5835 115.967 55.6943C116.032 55.8051 116.067 55.9309 116.07 56.0595V59.5112C116.07 59.771 116.211 60.0297 116.436 60.1443C116.547 60.2149 116.674 60.2524 116.805 60.2524C116.935 60.2524 117.063 60.2149 117.173 60.1443L124.293 55.9173C124.511 55.7884 124.692 55.6032 124.816 55.3805C124.94 55.1579 125.004 54.9058 125 54.6502V51.2281C125 50.7106 124.717 50.2237 124.293 49.964L112.394 42.9479C112.175 42.8209 111.927 42.7535 111.674 42.7524L111.673 42.7534ZM78.8636 53.2557C78.927 53.2557 78.9915 53.2705 79.0491 53.3001L83.1448 55.7158C83.258 55.7731 83.3157 55.9153 83.3157 56.0309V60.8623C83.3157 61.0065 83.258 61.123 83.1448 61.1803L79.0481 63.596C78.9906 63.6244 78.9275 63.6391 78.8636 63.6391C78.7996 63.6391 78.7365 63.6244 78.679 63.596L74.5823 61.1803C74.4691 61.123 74.4114 60.9778 74.4114 60.8623V56.0309C74.4114 55.8867 74.47 55.7731 74.5823 55.7148L78.679 53.3001C78.7366 53.2709 78.7991 53.2557 78.8636 53.2557Z" fill="#F4A261"/>
<path d="M47.982 42.893C47.7574 42.7642 47.5029 42.6965 47.244 42.6965C46.9851 42.6965 46.7306 42.7642 46.506 42.893L34.322 49.97C34.0984 50.1 33.9135 50.2872 33.7863 50.5123C33.659 50.7374 33.594 50.9924 33.598 51.251V65.432C33.598 65.957 33.888 66.452 34.322 66.714L46.506 73.79C46.7306 73.9188 46.9851 73.9865 47.244 73.9865C47.5029 73.9865 47.7574 73.9188 47.982 73.79L60.165 66.714C60.628 66.452 60.889 65.957 60.889 65.432V51.251C60.889 50.727 60.599 50.231 60.165 49.97L47.982 42.893Z" fill="#F4A261"/>
<path d="M60.194 49.97L47.953 42.893C47.8329 42.8321 47.7069 42.7835 47.577 42.748L33.859 66.364C33.975 66.51 34.119 66.626 34.264 66.714L46.506 73.79C46.853 73.994 47.258 74.052 47.634 73.935L60.513 50.232C60.4283 50.1212 60.3191 50.0316 60.194 49.97Z" fill="url(#paint0_linear_43_2)"/>
<path d="M60.194 66.713C60.542 66.509 60.802 66.16 60.918 65.781L47.518 42.718C47.172 42.66 46.795 42.689 46.477 42.893L34.322 49.94L47.432 73.993C47.605 73.964 47.808 73.906 47.982 73.818L60.194 66.713Z" fill="url(#paint1_linear_43_2)"/>
<defs>
<linearGradient id="paint0_linear_43_2" x1="45.3925" y1="59.9975" x2="76.4377" y2="37.2007" gradientUnits="userSpaceOnUse">
<stop offset="0.138" stop-color="#F4A261"/>
<stop offset="0.402" stop-color="#F4A261"/>
<stop offset="0.713" stop-color="#F4A261"/>
<stop offset="0.908" stop-color="#F4A261"/>
</linearGradient>
<linearGradient id="paint1_linear_43_2" x1="33.1523" y1="58.3367" x2="61.3447" y2="58.3367" gradientUnits="userSpaceOnUse">
<stop offset="0.092" stop-color="#F4A261"/>
<stop offset="0.287" stop-color="#F4A261"/>
<stop offset="0.598" stop-color="#F4A261"/>
<stop offset="0.862" stop-color="#F4A261"/>
</linearGradient>
</defs>
</svg>
