<svg width="128" height="128" viewBox="0 0 128 128" fill="none" xmlns="http://www.w3.org/2000/svg">
<path d="M22.67 47H122.34V120.67H22.67V47Z" fill="#333333"/>
<path d="M1.5 63.91V106.41C1.5 117.456 10.4543 126.41 21.5 126.41H106.5C117.546 126.41 126.5 117.456 126.5 106.41V21.41C126.5 10.3643 117.546 1.41 106.5 1.41H21.5C10.4543 1.41 1.5 10.3643 1.5 21.41V63.91ZM102.23 58.9203C102.23 58.915 102.235 58.9111 102.24 58.9123C105.23 59.6083 107.947 61.1731 110.05 63.41V63.41C112.325 65.7784 111.687 68.4696 108.954 70.2901C107.413 71.3164 105.709 72.4235 104.36 73.26C104.24 73.34 103.76 72.82 103.23 72.03C102.629 70.9937 101.776 70.1264 100.75 69.5091C99.7231 68.8918 98.557 68.5446 97.36 68.5C93.57 68.24 91.13 70.23 91.15 73.5C91.1187 74.3141 91.3051 75.1219 91.69 75.84C92.52 77.57 94.07 78.6 98.93 80.7C107.88 84.55 111.71 87.09 114.09 90.7C116.75 94.7 117.34 101.16 115.54 105.94C113.54 111.14 108.64 114.67 101.71 115.84C98.5448 116.203 95.3468 116.169 92.19 115.74C87.3516 114.942 82.8948 112.619 79.47 109.11C78.7321 108.295 77.5453 106.64 76.8266 105.495C76.3483 104.734 76.5774 103.985 77.37 103.56V103.56L82 101L84.4309 99.5916C85.0836 99.2134 85.9177 99.4049 86.34 100.03V100.03C87.6057 101.841 89.2166 103.383 91.08 104.57C95.08 106.67 100.54 106.38 103.24 103.95C104.147 103.06 104.712 101.879 104.838 100.615C104.964 99.3505 104.643 98.0819 103.93 97.03C102.93 95.64 100.93 94.47 95.34 92.03C88.89 89.25 86.11 87.53 83.57 84.79C81.9843 82.9819 80.8136 80.8486 80.14 78.54C79.6375 75.9025 79.5633 73.2012 79.92 70.54C81.25 64.31 85.92 59.96 92.74 58.67C95.8952 58.2796 99.0912 58.3667 102.22 58.9283C102.225 58.9292 102.23 58.9253 102.23 58.9203V58.9203ZM72.89 64.15V64.15C72.89 66.9777 70.5977 69.27 67.77 69.27H64.775C60.2932 69.27 56.66 72.9032 56.66 77.385V109.745C56.66 112.923 54.0834 115.5 50.905 115.5V115.5C47.7266 115.5 45.15 112.923 45.15 109.745V77.395C45.15 72.9022 41.5078 69.26 37.015 69.26H33.88C31.1186 69.26 28.88 67.0214 28.88 64.26V64.26V64.26C28.7814 60.9052 30.8142 59.0288 34.1704 59.0158C38.223 59 44.2859 59 51 59H67.6797C70.5338 59 72.8568 61.2961 72.89 64.15V64.15Z" fill="#F4A261"/>
</svg>
